<?xml version="1.0" encoding="utf-8"?>
<!-- Generator: Adobe Illustrator 28.1.0, SVG Export Plug-In . SVG Version: 6.00 Build 0)  -->
<svg version="1.1" id="Camada_1" xmlns="http://www.w3.org/2000/svg" xmlns:xlink="http://www.w3.org/1999/xlink" x="0px" y="0px"
	 viewBox="0 0 3607.63 2202.13" style="enable-background:new 0 0 3607.63 2202.13;" xml:space="preserve">
<style type="text/css">
	.st0{fill-rule:evenodd;clip-rule:evenodd;fill:#E9E439;}
	.st1{fill:#FFFFFF;}
	.st2{fill:none;}
</style>
<g>
	<path class="st0" d="M2773.15,1710.54l-4.35,7.28l-161.04-16.3l-45.7,46.58l17.77,143.06l-99.21,86.53l-148.11-65.27l-57.86,30.18
		l-27.31,141.55l-121.09,51.64l-120.7-107.85l-64.35,10.82l-69.72,126.18l-131.12,11.69l-81.46-139.87l-64.55-9.59l-105.3,98.46
		l-128.32-29.4l-34.26-158.19l-58.42-29.07l-130.57,61.1l-112.95-67.61l16.3-161.04l-46.58-45.7l-143.06,17.77L50.51,1561.62h737.36
		h302.59c173.76,198.76,429.13,324.33,713.87,324.33c284.73,0,540.11-125.57,713.87-324.33h297.97h741.98L2773.15,1710.54
		L2773.15,1710.54z"/>
	<path class="st0" d="M2713.13,492.76l40.54-5.03l86.54,99.21l-65.27,148.12l30.18,57.85l62.42,12.04h-237.07
		c-21.34-38.56-45.31-75.46-71.62-110.49L2713.13,492.76L2713.13,492.76z M1864.51,24.6l81.46,139.87l64.55,9.59l105.3-98.46
		l128.32,29.4l8.02,37.05l-166.03,217.05c-90.12-28.45-186.06-43.81-285.59-43.81s-195.47,15.36-285.59,43.81l-162.99-213.08
		l5.58-28.92l121.1-51.64l120.7,107.85l64.34-10.82l69.72-126.18L1864.51,24.6L1864.51,24.6z M1042.22,694.46
		c-26.31,35.04-50.29,71.93-71.63,110.49H710.05l90.44-19.58l29.07-58.42l-61.11-130.57l67.61-112.96l48.48,4.91L1042.22,694.46
		L1042.22,694.46z"/>
	<g>
		<path class="st1" d="M257.78,882.86l-93.14,346.79H50.2l93.14-346.79H257.78z M549.57,882.86l-5.94,22.79
			c-6.44,24.27-15.36,33.19-49.54,57.96l-115.43,81.74l143.67,184.29h-150.6l-136.24-184.29L395.5,928.44
			c9.41-6.94,13.87-14.37,16.35-22.79l5.94-22.79H549.57z"/>
		<path class="st1" d="M773.99,882.86l-93.14,346.79H566.41l93.14-346.79H773.99z"/>
		<path class="st1" d="M1254.53,945.28l-59.45,221.94c-9.41,34.18-45.08,62.42-79.27,62.42H819.07
			c-32.2-1.98-51.03-29.23-42.11-62.42l59.45-221.94c9.41-34.18,45.08-62.42,79.27-62.42h296.75
			C1244.62,884.84,1263.45,912.09,1254.53,945.28z M1132.66,972.53H943.91l-45.08,167.45h188.75L1132.66,972.53z"/>
		<path class="st1" d="M1327.85,945.28c9.41-34.18,45.08-62.42,79.27-62.42h339.35l-12.39,22.29
			c-19.32,35.67-47.56,67.38-83.23,67.38h-216l-24.27,91.65h204.6l-9.91,18.33c-15.85,29.23-39.14,55.49-68.37,55.49h-146.15
			l-24.77,91.65h-114.44L1327.85,945.28z"/>
		<path class="st1" d="M1909.96,882.86l-93.14,346.79h-114.44l93.14-346.79H1909.96z"/>
		<path class="st1" d="M2397.43,882.86l-12.38,44.59c-13.87,52.51-49.54,92.64-108.49,92.64h-31.21l12.39-47.56h-177.85
			l-45.08,167.45h303.19l-11.89,22.29c-19.82,35.67-47.56,67.38-83.23,67.38h-287.83c-32.2-1.98-51.03-29.23-42.11-62.42
			l59.45-221.94c9.41-34.18,45.08-62.42,79.26-62.42H2397.43z"/>
		<path class="st1" d="M2584.7,882.86l-93.14,346.79h-114.44l93.14-346.79H2584.7z"/>
		<path class="st1" d="M3053.84,945.28l-76.29,284.36h-114.44l68.86-257.12h-174.88l-68.86,257.12h-114.44l93.14-346.79h344.8
			C3043.93,884.84,3062.76,912.09,3053.84,945.28z"/>
		<path class="st1" d="M3552.22,1229.65h-86.2c-1.49,0-2.97,0-3.96,0h-436.95l16.84-24.28c24.77-35.17,56.97-62.42,95.61-62.42
			h279.41l-18.33-139.7c-2.97-23.28-13.87-30.72-41.12-30.72c-27.25,0-43.1,7.43-57.47,30.72l-23.28,37.65
			c-19.82,32.2-44.59,62.42-78.77,62.42h-86.7l111.96-158.04c21.8-31.71,51.03-62.42,85.21-62.42h146.64
			c34.18,0,46.57,30.72,51.52,62.42L3552.22,1229.65z"/>
	</g>
	<g>
		<path class="st1" d="M61.01,1468.63v-12.8l15.2-7.4h69.8c6,0,9-3,9-9v-6c0-3.07-0.7-5.67-2.1-7.8c-1.4-2.13-4.03-3.73-7.9-4.8
			l-70.2-19.2c-4.93-1.47-8.27-4-10-7.6c-1.73-3.6-2.6-7.4-2.6-11.4v-27.8c0-8.53,2.23-15.03,6.7-19.5c4.47-4.47,10.97-6.7,19.5-6.7
			h99.8v15.6l-15.2,4.6h-61.2c-3.07,0-5.53,0.93-7.4,2.8c-1.87,1.87-2.8,4.33-2.8,7.4v4.8c0,6.4,3.4,10.6,10.2,12.6l68.8,19.2
			c5.07,1.47,8.63,3.73,10.7,6.8c2.07,3.07,3.1,7.13,3.1,12.2v27.8c0,8.53-2.23,15.03-6.7,19.5c-4.47,4.47-10.97,6.7-19.5,6.7H61.01
			z"/>
		<path class="st1" d="M221.01,1468.63v-140h126.8v15.6l-15.2,4.6h-72.2v40.8h64v15.4l-15.2,4.8h-48.8v38.6h89.4v15.4l-15,4.8
			H221.01z"/>
		<path class="st1" d="M401.01,1468.63c-9.6,0-16.9-2.5-21.9-7.5s-7.5-12.3-7.5-21.9v-110.6h39.8v107.4c0,3.47,1.27,6.47,3.8,9
			c2.53,2.53,5.53,3.8,9,3.8h49.6c3.6,0,6.67-1.27,9.2-3.8c2.53-2.53,3.8-5.53,3.8-9v-107.4h39.8v110.6c0,9.6-2.5,16.9-7.5,21.9
			s-12.3,7.5-21.9,7.5H401.01z"/>
		<path class="st1" d="M636,1468.63c-9.6,0-16.9-2.5-21.9-7.5s-7.5-12.3-7.5-21.9v-81.2c0-9.6,2.5-16.9,7.5-21.9s12.3-7.5,21.9-7.5
			h114.4v15.6l-15.2,4.6h-76.6c-3.47,0.27-6.37,1.6-8.7,4c-2.33,2.4-3.5,5.33-3.5,8.8v74.2c0,3.07,0.93,5.73,2.8,8
			c1.87,2.27,4.13,3.8,6.8,4.6h95.4v12.6l-15.2,7.6H636z"/>
		<path class="st1" d="M802.6,1468.63h-41l38.4-110.6c1.6-4.53,3.13-8.6,4.6-12.2c1.47-3.6,3.23-6.67,5.3-9.2
			c2.07-2.53,4.63-4.5,7.7-5.9c3.07-1.4,7-2.1,11.8-2.1h56.4c4.8,0,8.7,0.7,11.7,2.1c3,1.4,5.57,3.37,7.7,5.9
			c2.13,2.53,3.9,5.6,5.3,9.2c1.4,3.6,2.9,7.67,4.5,12.2l38.4,110.6h-41l-11.4-32.6h-87L802.6,1468.63z M820.6,1416.83h73.8
			l-19-55.6c-1.2-3.33-2.8-6.3-4.8-8.9c-2-2.6-4.73-3.9-8.2-3.9h-9.8c-3.47,0-6.2,1.3-8.2,3.9c-2,2.6-3.53,5.57-4.6,8.9
			L820.6,1416.83z"/>
		<path class="st1" d="M1012.6,1468.63h-39.4v-140h117.2c2.8,0.27,5.43,1.03,7.9,2.3c2.47,1.27,4.63,2.9,6.5,4.9
			c1.87,2,3.33,4.23,4.4,6.7c1.07,2.47,1.6,5.1,1.6,7.9v33.4c0,5.07-1.7,9.23-5.1,12.5c-3.4,3.27-7.57,5.37-12.5,6.3
			c3.07,1.87,5.77,4.43,8.1,7.7c2.33,3.27,4.63,7.03,6.9,11.3l25.2,47h-47l-23-44.8c-1.73-3.47-3.6-6.07-5.6-7.8
			c-2-1.73-4.73-2.6-8.2-2.6h-37V1468.63z M1012.6,1348.43v43.6h49.4c6.93,0,10.4-3.47,10.4-10.4v-22.8c0-6.93-3.47-10.4-10.4-10.4
			H1012.6z"/>
		<path class="st1" d="M1192,1468.63h-39.4v-140h117.2c2.8,0.27,5.43,1.03,7.9,2.3c2.47,1.27,4.63,2.9,6.5,4.9
			c1.87,2,3.33,4.23,4.4,6.7c1.07,2.47,1.6,5.1,1.6,7.9v33.4c0,5.07-1.7,9.23-5.1,12.5c-3.4,3.27-7.57,5.37-12.5,6.3
			c3.07,1.87,5.77,4.43,8.1,7.7c2.33,3.27,4.63,7.03,6.9,11.3l25.2,47h-47l-23-44.8c-1.73-3.47-3.6-6.07-5.6-7.8
			c-2-1.73-4.73-2.6-8.2-2.6h-37V1468.63z M1192,1348.43v43.6h49.4c6.93,0,10.4-3.47,10.4-10.4v-22.8c0-6.93-3.47-10.4-10.4-10.4
			H1192z"/>
		<path class="st1" d="M1357.39,1468.63c-9.6,0-16.9-2.5-21.9-7.5s-7.5-12.3-7.5-21.9v-81.2c0-9.6,2.5-16.9,7.5-21.9
			s12.3-7.5,21.9-7.5h98.2c9.6,0,16.9,2.5,21.9,7.5s7.5,12.3,7.5,21.9v81.2c0,9.6-2.5,16.9-7.5,21.9s-12.3,7.5-21.9,7.5H1357.39z
			 M1380.59,1348.43c-3.47,0-6.47,1.27-9,3.8c-2.53,2.54-3.8,5.54-3.8,9v74.6c0,3.6,1.27,6.67,3.8,9.2c2.53,2.53,5.53,3.8,9,3.8
			h51.8c3.47,0,6.47-1.27,9-3.8c2.53-2.53,3.8-5.6,3.8-9.2v-74.6c0-3.46-1.27-6.46-3.8-9c-2.53-2.53-5.53-3.8-9-3.8H1380.59z"/>
		<path class="st1" d="M1565.59,1468.63v-140h126.8v15.6l-15.2,4.6h-72.2v40.8h64v15.4l-15.2,4.8h-48.8v38.6h89.4v15.4l-15,4.8
			H1565.59z"/>
		<path class="st1" d="M1755.99,1468.63h-39.8v-110.6c0-4,0.77-7.8,2.3-11.4c1.53-3.6,3.6-6.73,6.2-9.4c2.6-2.67,5.7-4.77,9.3-6.3
			c3.6-1.53,7.4-2.3,11.4-2.3h64c4.13,0,7.9,0.97,11.3,2.9c3.4,1.93,6.23,4.5,8.5,7.7c2.27-3.2,5.1-5.77,8.5-7.7
			c3.4-1.93,7.17-2.9,11.3-2.9h63.8c4,0,7.8,0.77,11.4,2.3c3.6,1.53,6.73,3.63,9.4,6.3c2.67,2.67,4.77,5.8,6.3,9.4
			c1.53,3.6,2.3,7.4,2.3,11.4v110.6h-39.8v-107.4c0-3.46-1.27-6.46-3.8-9c-2.53-2.53-5.53-3.8-9-3.8h-27.6c-3.6,0-6.67,1.27-9.2,3.8
			c-2.53,2.54-3.8,5.54-3.8,9v107.4h-39.6v-107.4c0-3.46-1.3-6.46-3.9-9c-2.6-2.53-5.63-3.8-9.1-3.8h-27.6c-3.47,0-6.47,1.27-9,3.8
			c-2.53,2.54-3.8,5.54-3.8,9V1468.63z"/>
		<path class="st1" d="M2048.99,1468.63h-25.6v-140h117.2c2.8,0.27,5.43,1.03,7.9,2.3c2.47,1.27,4.63,2.9,6.5,4.9
			c1.87,2,3.33,4.23,4.4,6.7c1.07,2.47,1.6,5.1,1.6,7.9v28c0,4.13-1.13,7.7-3.4,10.7c-2.27,3-5.27,5.23-9,6.7
			c2.8,0.27,5.4,1.1,7.8,2.5c2.4,1.4,4.5,3.17,6.3,5.3c1.8,2.13,3.23,4.5,4.3,7.1c1.07,2.6,1.6,5.3,1.6,8.1v28
			c0,2.8-0.53,5.43-1.6,7.9c-1.07,2.47-2.53,4.7-4.4,6.7c-1.87,2-4.03,3.63-6.5,4.9c-2.47,1.27-5.1,2.03-7.9,2.3H2048.99z
			 M2062.79,1348.43v38.4h49.4c6.93,0,10.4-3.47,10.4-10.4v-17.6c0-6.93-3.47-10.4-10.4-10.4H2062.79z M2130.19,1418.43
			c0-6.93-3.47-10.4-10.4-10.4h-57v40.8h57c6.93,0,10.4-3.47,10.4-10.4V1418.43z"/>
		<path class="st1" d="M2224.79,1468.63c-9.6,0-16.9-2.5-21.9-7.5s-7.5-12.3-7.5-21.9v-81.2c0-9.6,2.5-16.9,7.5-21.9
			s12.3-7.5,21.9-7.5h98.2c9.6,0,16.9,2.5,21.9,7.5s7.5,12.3,7.5,21.9v81.2c0,9.6-2.5,16.9-7.5,21.9s-12.3,7.5-21.9,7.5H2224.79z
			 M2247.99,1348.43c-3.47,0-6.47,1.27-9,3.8c-2.54,2.54-3.8,5.54-3.8,9v74.6c0,3.6,1.27,6.67,3.8,9.2c2.53,2.53,5.53,3.8,9,3.8
			h51.8c3.47,0,6.47-1.27,9-3.8c2.53-2.53,3.8-5.6,3.8-9.2v-74.6c0-3.46-1.27-6.46-3.8-9c-2.53-2.53-5.53-3.8-9-3.8H2247.99z"/>
		<path class="st1" d="M2409.99,1468.63h-41l38.4-110.6c1.6-4.53,3.13-8.6,4.6-12.2c1.47-3.6,3.23-6.67,5.3-9.2
			c2.07-2.53,4.63-4.5,7.7-5.9c3.07-1.4,7-2.1,11.8-2.1h56.4c4.8,0,8.7,0.7,11.7,2.1c3,1.4,5.57,3.37,7.7,5.9
			c2.13,2.53,3.9,5.6,5.3,9.2c1.4,3.6,2.9,7.67,4.5,12.2l38.4,110.6h-41l-11.4-32.6h-87L2409.99,1468.63z M2427.99,1416.83h73.8
			l-19-55.6c-1.2-3.33-2.8-6.3-4.8-8.9c-2-2.6-4.73-3.9-8.2-3.9h-9.8c-3.47,0-6.2,1.3-8.2,3.9c-2,2.6-3.53,5.57-4.6,8.9
			L2427.99,1416.83z"/>
		<path class="st1" d="M2575.59,1468.63v-12.8l15.2-7.4h69.8c6,0,9-3,9-9v-6c0-3.07-0.7-5.67-2.1-7.8c-1.4-2.13-4.03-3.73-7.9-4.8
			l-70.2-19.2c-4.93-1.47-8.27-4-10-7.6c-1.73-3.6-2.6-7.4-2.6-11.4v-27.8c0-8.53,2.23-15.03,6.7-19.5c4.47-4.47,10.97-6.7,19.5-6.7
			h99.8v15.6l-15.2,4.6h-61.2c-3.07,0-5.53,0.93-7.4,2.8c-1.87,1.87-2.8,4.33-2.8,7.4v4.8c0,6.4,3.4,10.6,10.2,12.6l68.8,19.2
			c5.07,1.47,8.63,3.73,10.7,6.8c2.07,3.07,3.1,7.13,3.1,12.2v27.8c0,8.53-2.23,15.03-6.7,19.5c-4.47,4.47-10.97,6.7-19.5,6.7
			H2575.59z"/>
		<path class="st1" d="M2824.79,1468.63h-39.8v-110.6c0-4,0.77-7.8,2.3-11.4c1.53-3.6,3.6-6.73,6.2-9.4c2.6-2.67,5.7-4.77,9.3-6.3
			c3.6-1.53,7.4-2.3,11.4-2.3h64c4.13,0,7.9,0.97,11.3,2.9c3.4,1.93,6.23,4.5,8.5,7.7c2.27-3.2,5.1-5.77,8.5-7.7
			c3.4-1.93,7.17-2.9,11.3-2.9h63.8c4,0,7.8,0.77,11.4,2.3c3.6,1.53,6.73,3.63,9.4,6.3c2.67,2.67,4.77,5.8,6.3,9.4
			c1.53,3.6,2.3,7.4,2.3,11.4v110.6h-39.8v-107.4c0-3.46-1.27-6.46-3.8-9c-2.53-2.53-5.53-3.8-9-3.8h-27.6c-3.6,0-6.67,1.27-9.2,3.8
			c-2.53,2.54-3.8,5.54-3.8,9v107.4h-39.6v-107.4c0-3.46-1.3-6.46-3.9-9c-2.6-2.53-5.63-3.8-9.1-3.8h-27.6c-3.47,0-6.47,1.27-9,3.8
			c-2.53,2.54-3.8,5.54-3.8,9V1468.63z"/>
		<path class="st1" d="M3183.39,1358.03l38.4,110.6h-41l-11.4-32.6h-87l-11.4,32.6h-41l38.4-110.6c1.6-4.53,3.13-8.6,4.6-12.2
			c1.47-3.6,3.23-6.67,5.3-9.2c2.07-2.53,4.63-4.5,7.7-5.9c3.07-1.4,7-2.1,11.8-2.1h56.4c4.8,0,8.7,0.7,11.7,2.1
			c3,1.4,5.57,3.37,7.7,5.9c2.13,2.53,3.9,5.6,5.3,9.2C3180.29,1349.43,3181.79,1353.5,3183.39,1358.03z M3162.79,1416.83l-19-55.4
			c-1.2-3.47-2.8-6.5-4.8-9.1c-2-2.6-4.73-3.9-8.2-3.9h-9.8c-3.47,0-6.2,1.3-8.2,3.9c-2,2.6-3.53,5.63-4.6,9.1l-19.2,55.4H3162.79z
			 M3113.59,1306.63l-14.8,0.4v-12.8c0-3.33,1.07-5.93,3.2-7.8c2.13-1.87,4.93-2.8,8.4-2.8c2.53,0,5.67,0.7,9.4,2.1
			c3.73,1.4,7.33,2.83,10.8,4.3c1.6,0.67,3.07,1.27,4.4,1.8c1.33,0.53,2.4,0.93,3.2,1.2v-7.2l14.8-0.4v13c0,3.07-1.03,5.57-3.1,7.5
			c-2.07,1.93-4.77,2.9-8.1,2.9c-2.53,0-5.2-0.53-8-1.6c-2.8-1.07-5.6-2.27-8.4-3.6c-2.27-1.07-4.4-2-6.4-2.8s-3.8-1.33-5.4-1.6
			V1306.63z"/>
		<path class="st1" d="M3267.99,1468.63c-9.6,0-16.9-2.5-21.9-7.5s-7.5-12.3-7.5-21.9v-81.2c0-9.6,2.5-16.9,7.5-21.9
			s12.3-7.5,21.9-7.5h98.2c9.6,0,16.9,2.5,21.9,7.5s7.5,12.3,7.5,21.9v81.2c0,9.6-2.5,16.9-7.5,21.9s-12.3,7.5-21.9,7.5H3267.99z
			 M3291.19,1348.43c-3.47,0-6.47,1.27-9,3.8c-2.54,2.54-3.8,5.54-3.8,9v74.6c0,3.6,1.27,6.67,3.8,9.2c2.53,2.53,5.53,3.8,9,3.8
			h51.8c3.47,0,6.47-1.27,9-3.8c2.53-2.53,3.8-5.6,3.8-9.2v-74.6c0-3.46-1.27-6.46-3.8-9c-2.53-2.53-5.53-3.8-9-3.8H3291.19z"/>
		<path class="st1" d="M3421.19,1468.63v-12.8l15.2-7.4h69.8c6,0,9-3,9-9v-6c0-3.07-0.7-5.67-2.1-7.8c-1.4-2.13-4.03-3.73-7.9-4.8
			l-70.2-19.2c-4.93-1.47-8.27-4-10-7.6c-1.73-3.6-2.6-7.4-2.6-11.4v-27.8c0-8.53,2.23-15.03,6.7-19.5c4.47-4.47,10.97-6.7,19.5-6.7
			h99.8v15.6l-15.2,4.6h-61.2c-3.07,0-5.53,0.93-7.4,2.8c-1.87,1.87-2.8,4.33-2.8,7.4v4.8c0,6.4,3.4,10.6,10.2,12.6l68.8,19.2
			c5.07,1.47,8.63,3.73,10.7,6.8c2.07,3.07,3.1,7.13,3.1,12.2v27.8c0,8.53-2.23,15.03-6.7,19.5c-4.47,4.47-10.97,6.7-19.5,6.7
			H3421.19z"/>
	</g>
	<path class="st2" d="M1306.67,536.85v-7.73c-3.51,2.55-7,5.12-10.46,7.73H1306.67z"/>
	<g>
		<path class="st1" d="M1170.93,487.08c20.6,26.93,59.13,32.06,86.06,11.46c26.93-20.6,32.06-59.13,11.46-86.06
			c-20.6-26.93-59.13-32.06-86.06-11.46C1155.46,421.62,1150.32,460.15,1170.93,487.08z"/>
		<path class="st1" d="M1031.86,206.98l1.32-1.01l1.32-1.01c65.84-50.36,136.42-94.97,211.74-133.82l-22.41-29.3
			c-73.1,40.79-142.54,86.1-208.38,135.87c-0.82,0.62-1.64,1.24-2.46,1.86c-0.81,0.63-1.62,1.26-2.44,1.89
			c-65.26,50.52-127.17,105.68-185.67,165.56l22.41,29.3C904.5,313.79,966.02,257.34,1031.86,206.98z"/>
		<path class="st1" d="M1006.31,175.95c0.82-0.63,1.64-1.27,2.46-1.9c0.83-0.63,1.65-1.25,2.48-1.88
			c65.84-49.77,135.27-95.1,208.32-135.92l-4.65-6.07c-3.02-3.96-8.61-2.37-12.16-0.91c-77.27,31.87-147.29,73.62-211.23,122.25
			c-63.66,48.99-122.29,105.64-173.27,171.87c-2.34,3.04-5.34,8.01-2.3,11.97l4.64,6.07C879.12,281.62,941.04,226.48,1006.31,175.95
			z"/>
		<polygon class="st1" points="1133.27,364.34 1134.43,363.45 1133.27,363.45 		"/>
		<path class="st1" d="M1547.16,464.52l-244.3-319.37c-75.3,38.7-145.92,83.26-211.84,133.68l-1.32,1.01l-1.32,1.01
			c-65.92,50.43-127.41,106.92-184.46,169.48l231.61,302.78c14.57-4.41,29.16-8.61,43.78-12.58l-5.7-7.45
			c-7.47-9.76-11.34-20.38-12.3-31.23l-135.92-177.69c-10.27-13.41-14.11-29.8-12.03-45.4c2.08-15.59,10.07-30.4,23.49-40.67
			l96.42-73.76v-0.89h1.17l12.12-9.27l109.71-83.92c13.41-10.26,29.8-14.1,45.39-12.03c15.6,2.08,30.41,10.07,40.67,23.49
			l135.92,177.69c10.22,3.76,19.46,10.27,26.92,20.04l9.02,11.79c7.29,6.3,15.2,6.09,23.67-0.02c3.5-2.69,7.02-5.37,10.53-8.05
			C1552.62,479.91,1556.59,476.84,1547.16,464.52z"/>
		<path class="st1" d="M1079.89,269.77l1.32-1.01l1.32-1.01c65.84-50.36,136.41-94.97,211.74-133.82l-15.43-20.17
			c-75.31,38.7-145.93,83.26-211.85,133.68l-1.32,1.01l-1.32,1.01c-65.92,50.43-127.41,106.92-184.47,169.48l15.43,20.17
			C952.52,376.57,1014.05,320.13,1079.89,269.77z"/>
		<path class="st1" d="M1055.88,238.37l1.32-1.01l1.32-1.01c65.83-50.36,136.41-94.97,211.74-133.82l-15.43-20.17
			c-75.31,38.69-145.92,83.25-211.84,133.68l-1.33,1.01l-1.32,1.01c-65.92,50.43-127.41,106.92-184.46,169.48l15.43,20.17
			C928.52,345.18,990.04,288.73,1055.88,238.37z"/>
		<path class="st1" d="M1339.99,506.34c5-3.22,10.04-6.39,15.14-9.5c17.61-10.73,35.79-20.79,54.6-30.11
			c15.5-7.69,32.21-11.9,47.93-11.28l-2.79-3.64l-123.62-161.62c-7.93-10.36-19.37-16.53-31.43-18.14
			c-12.06-1.61-24.72,1.36-35.07,9.28l-107.35,82.12l-2.36,1.81l-21.77,16.65l-87.95,67.27c-10.36,7.92-16.53,19.37-18.14,31.42
			c-1.61,12.06,1.36,24.72,9.28,35.08l126.41,165.26c3.52-15.34,11.96-30.36,23.43-43.31c2.91-3.29,5.85-6.52,8.81-9.74
			c11.05-12.02,22.43-23.58,34.12-34.68c4.37-4.15,8.78-8.22,13.23-12.24l169.4,223.98h154.23L1339.99,506.34z M1266.59,511.1
			c-33.66,25.75-81.82,19.34-107.57-14.33c-25.75-33.66-19.34-81.83,14.33-107.58c33.66-25.75,81.82-19.34,107.57,14.33
			C1306.67,437.19,1300.26,485.35,1266.59,511.1z"/>
		<path class="st1" d="M1182.38,401.02c-26.93,20.6-32.06,59.13-11.46,86.06c20.6,26.93,59.13,32.06,86.06,11.46
			c26.93-20.6,32.06-59.13,11.46-86.06C1247.84,385.55,1209.31,380.42,1182.38,401.02z"/>
	</g>
	<g>
		<path class="st1" d="M2422.41,487.08c-20.6,26.93-59.13,32.06-86.06,11.46c-26.93-20.6-32.06-59.13-11.46-86.06
			c20.6-26.93,59.13-32.06,86.06-11.46C2437.88,421.62,2443.01,460.15,2422.41,487.08z"/>
		<path class="st1" d="M2561.47,206.98l-1.32-1.01l-1.32-1.01c-65.84-50.36-136.42-94.97-211.74-133.82l22.41-29.3
			c73.1,40.79,142.54,86.1,208.38,135.87c0.82,0.62,1.64,1.24,2.46,1.86c0.81,0.63,1.62,1.26,2.44,1.89
			c65.26,50.52,127.17,105.68,185.67,165.56l-22.41,29.3C2688.83,313.79,2627.31,257.34,2561.47,206.98z"/>
		<path class="st1" d="M2587.02,175.95c-0.82-0.63-1.64-1.27-2.46-1.9c-0.83-0.63-1.65-1.25-2.48-1.88
			c-65.84-49.77-135.27-95.1-208.32-135.92l4.65-6.07c3.02-3.96,8.61-2.37,12.16-0.91c77.27,31.87,147.29,73.62,211.23,122.25
			c63.66,48.99,122.29,105.64,173.27,171.87c2.34,3.04,5.34,8.01,2.3,11.97l-4.64,6.07C2714.22,281.62,2652.3,226.48,2587.02,175.95
			z"/>
		<polygon class="st1" points="2460.07,364.34 2458.9,363.45 2460.07,363.45 		"/>
		<path class="st1" d="M2046.18,464.52l244.3-319.37c75.3,38.7,145.92,83.26,211.84,133.68l1.32,1.01l1.32,1.01
			c65.92,50.43,127.41,106.92,184.46,169.48l-231.61,302.78c-14.57-4.41-29.16-8.61-43.78-12.58l5.7-7.45
			c7.47-9.76,11.34-20.38,12.3-31.23l135.92-177.69c10.27-13.41,14.11-29.8,12.03-45.4c-2.08-15.59-10.07-30.4-23.49-40.67
			l-96.42-73.76v-0.89h-1.17l-12.12-9.27l-109.71-83.92c-13.41-10.26-29.8-14.1-45.39-12.03c-15.6,2.08-30.41,10.07-40.67,23.49
			L2115.08,459.4c-10.22,3.76-19.46,10.27-26.92,20.04l-9.02,11.79c-7.29,6.3-15.2,6.09-23.67-0.02c-3.5-2.69-7.02-5.37-10.53-8.05
			C2040.72,479.91,2036.75,476.84,2046.18,464.52z"/>
		<path class="st1" d="M2513.45,269.77l-1.32-1.01l-1.32-1.01c-65.84-50.36-136.41-94.97-211.74-133.82l15.43-20.17
			c75.31,38.7,145.93,83.26,211.85,133.68l1.32,1.01l1.32,1.01c65.92,50.43,127.41,106.92,184.47,169.48l-15.43,20.17
			C2640.81,376.57,2579.28,320.13,2513.45,269.77z"/>
		<path class="st1" d="M2537.46,238.37l-1.32-1.01l-1.32-1.01c-65.83-50.36-136.41-94.97-211.74-133.82l15.43-20.17
			c75.31,38.69,145.92,83.25,211.84,133.68l1.33,1.01l1.32,1.01c65.92,50.43,127.41,106.92,184.46,169.48l-15.43,20.17
			C2664.82,345.18,2603.29,288.73,2537.46,238.37z"/>
		<path class="st1" d="M2027.22,804.95h154.23l169.4-223.98c4.45,4.02,8.87,8.09,13.23,12.24c11.69,11.1,23.06,22.66,34.12,34.68
			c2.96,3.22,5.9,6.46,8.81,9.74c11.48,12.95,19.92,27.97,23.43,43.31l126.41-165.26c7.92-10.35,10.88-23.02,9.28-35.08
			c-1.61-12.06-7.78-23.5-18.14-31.42l-87.95-67.27l-21.77-16.65l-2.36-1.81l-107.35-82.12c-10.36-7.92-23.01-10.89-35.07-9.28
			c-12.05,1.61-23.5,7.78-31.43,18.14l-123.62,161.62l-2.79,3.64c15.72-0.62,32.43,3.59,47.93,11.28
			c18.81,9.32,36.99,19.38,54.6,30.11c5.1,3.11,10.14,6.28,15.14,9.5L2027.22,804.95z M2312.41,403.53
			c25.75-33.66,73.91-40.08,107.57-14.33c33.66,25.75,40.08,73.91,14.33,107.58c-25.75,33.66-73.91,40.08-107.57,14.33
			C2293.07,485.35,2286.66,437.19,2312.41,403.53z"/>
		<path class="st1" d="M2410.95,401.02c26.93,20.6,32.06,59.13,11.46,86.06c-20.6,26.93-59.13,32.06-86.06,11.46
			c-26.93-20.6-32.06-59.13-11.46-86.06C2345.49,385.55,2384.02,380.42,2410.95,401.02z"/>
	</g>
</g>
</svg>
